<svg width="260" height="51" viewBox="0 0 260 51" fill="none" xmlns="http://www.w3.org/2000/svg">
<path d="M219.1 7.30029H213.8V14.0003H209.1V18.8003H213.8V39.1003H226.7V34.3003H219.1V18.8003H226.7V14.0003H219.1V7.30029Z" fill="white"/>
<path d="M106.6 13.3003C103.433 13.2873 100.384 14.5066 98.0998 16.7003V5.80029H92.7998V39.1003H98.0998V36.6003C100.437 38.6865 103.467 39.8274 106.6 39.8003C108.326 39.8698 110.046 39.5562 111.637 38.8819C113.228 38.2075 114.649 37.1893 115.8 35.9003C117.035 34.6714 118.009 33.2049 118.662 31.5893C119.315 29.9737 119.634 28.2425 119.6 26.5003C119.634 24.758 119.315 23.0269 118.662 21.4113C118.009 19.7957 117.035 18.3292 115.8 17.1003C114.627 15.8455 113.2 14.857 111.612 14.2014C110.025 13.5458 108.316 13.2386 106.6 13.3003ZM111.9 32.3003C110.345 33.8453 108.242 34.7124 106.05 34.7124C103.858 34.7124 101.755 33.8453 100.2 32.3003C98.7306 30.7263 97.9135 28.6534 97.9135 26.5003C97.9135 24.3472 98.7306 22.2743 100.2 20.7003C101.79 19.2243 103.88 18.4041 106.05 18.4041C108.22 18.4041 110.309 19.2243 111.9 20.7003C113.401 22.255 114.227 24.3394 114.2 26.5003C114.225 27.5718 114.034 28.6374 113.639 29.6338C113.243 30.6301 112.652 31.5369 111.9 32.3003Z" fill="white"/>
<path d="M75.4004 13.3003C73.5944 13.2346 71.794 13.5378 70.109 14.1911C68.4241 14.8444 66.89 15.8343 65.6004 17.1003C64.3649 18.3292 63.3912 19.7957 62.7381 21.4113C62.085 23.0269 61.766 24.758 61.8004 26.5003C61.766 28.2425 62.085 29.9737 62.7381 31.5893C63.3912 33.2048 64.3649 34.6713 65.6004 35.9003C66.8707 37.199 68.3991 38.2171 70.0871 38.8888C71.775 39.5606 73.585 39.8711 75.4004 39.8003C77.1582 39.8413 78.906 39.5254 80.5382 38.8715C82.1704 38.2177 83.653 37.2395 84.8963 35.9962C86.1396 34.7529 87.1178 33.2703 87.7716 31.6381C88.4255 30.0059 88.7414 28.2581 88.7004 26.5003C88.7536 24.7644 88.453 23.0358 87.8169 21.4198C87.1808 19.8038 86.2225 18.3341 85.0004 17.1003C83.7446 15.8448 82.2449 14.8599 80.5938 14.2064C78.9427 13.5528 77.1752 13.2444 75.4004 13.3003ZM81.2004 32.3003C79.6454 33.8452 77.5424 34.7124 75.3504 34.7124C73.1583 34.7124 71.0553 33.8452 69.5004 32.3003C68.7284 31.5513 68.1242 30.647 67.7277 29.6472C67.3312 28.6474 67.1515 27.5747 67.2004 26.5003C67.1639 25.4273 67.3494 24.3583 67.7452 23.3603C68.1409 22.3623 68.7385 21.4567 69.5004 20.7003C71.0909 19.2243 73.1805 18.404 75.3504 18.404C77.5202 18.404 79.6099 19.2243 81.2004 20.7003C82.6695 22.2743 83.4867 24.3472 83.4867 26.5003C83.4867 28.6534 82.6695 30.7263 81.2004 32.3003Z" fill="white"/>
<path d="M168.9 16.8002C166.576 14.5305 163.448 13.2722 160.2 13.3002C158.485 13.245 156.777 13.5552 155.191 14.2104C153.605 14.8655 152.176 15.8506 151 17.1002C149.764 18.3292 148.791 19.7957 148.138 21.4112C147.484 23.0268 147.165 24.758 147.2 26.5002C147.165 28.2425 147.484 29.9736 148.138 31.5892C148.791 33.2048 149.764 34.6713 151 35.9002C152.159 37.1784 153.582 38.1892 155.171 38.8627C156.759 39.5361 158.475 39.856 160.2 39.8002C163.411 39.8306 166.516 38.6527 168.9 36.5002V37.7002H168.8V38.0002C168.829 38.9801 168.658 39.9556 168.297 40.8669C167.936 41.7783 167.392 42.6063 166.7 43.3002C166.011 44.0335 165.172 44.6096 164.24 44.9892C163.308 45.3689 162.305 45.5432 161.3 45.5002C160.279 45.5446 159.261 45.3713 158.313 44.992C157.365 44.6127 156.508 44.036 155.8 43.3002C155.086 42.597 154.539 41.7427 154.2 40.8002V40.6002H148.7V41.0002C149.21 43.2723 150.354 45.3529 152 47.0002C153.223 48.2015 154.679 49.1404 156.278 49.7595C157.878 50.3785 159.586 50.6646 161.3 50.6002C162.957 50.6676 164.61 50.3993 166.16 49.8114C167.711 49.2236 169.127 48.3282 170.322 47.1793C171.518 46.0303 172.469 44.6515 173.118 43.1256C173.767 41.5998 174.101 39.9584 174.1 38.3002V38.1002V14.0002H168.9V16.8002ZM160.8 34.7002C159.703 34.7378 158.61 34.5435 157.594 34.1299C156.577 33.7163 155.659 33.0929 154.9 32.3002C154.147 31.5368 153.556 30.63 153.161 29.6337C152.766 28.6373 152.575 27.5718 152.6 26.5002C152.572 24.3393 153.399 22.2549 154.9 20.7002C155.678 19.9403 156.602 19.3449 157.616 18.9498C158.629 18.5546 159.712 18.3677 160.8 18.4002C161.873 18.3638 162.942 18.5493 163.94 18.945C164.938 19.3408 165.843 19.9383 166.6 20.7002C168.069 22.2742 168.886 24.3471 168.886 26.5002C168.886 28.6533 168.069 30.7262 166.6 32.3002C165.864 33.0955 164.964 33.7219 163.963 34.1362C162.962 34.5505 161.883 34.7429 160.8 34.7002Z" fill="white"/>
<path d="M199.7 16.7002C197.427 14.4882 194.371 13.2658 191.2 13.3002C189.485 13.245 187.777 13.5552 186.191 14.2104C184.605 14.8655 183.176 15.8506 182 17.1002C180.764 18.3292 179.791 19.7957 179.138 21.4112C178.484 23.0268 178.165 24.758 178.2 26.5002C178.165 28.2425 178.484 29.9736 179.138 31.5892C179.791 33.2048 180.764 34.6713 182 35.9002C183.15 37.1892 184.572 38.2075 186.162 38.8818C187.753 39.5561 189.473 39.8698 191.2 39.8002C194.336 39.8469 197.373 38.7035 199.7 36.6002V39.1002H205V14.0002H199.7V16.7002ZM191.8 34.7002C190.703 34.7378 189.61 34.5435 188.594 34.1299C187.577 33.7163 186.659 33.0929 185.9 32.3002C185.147 31.5368 184.556 30.63 184.161 29.6337C183.766 28.6373 183.575 27.5718 183.6 26.5002C183.572 24.3393 184.399 22.2549 185.9 20.7002C186.678 19.9403 187.602 19.3449 188.616 18.9498C189.629 18.5546 190.712 18.3677 191.8 18.4002C192.873 18.3638 193.942 18.5493 194.94 18.945C195.938 19.3408 196.843 19.9383 197.6 20.7002C199.069 22.2742 199.886 24.3471 199.886 26.5002C199.886 28.6533 199.069 30.7262 197.6 32.3002C196.864 33.0955 195.964 33.7219 194.963 34.1362C193.962 34.5505 192.883 34.7429 191.8 34.7002Z" fill="white"/>
<path d="M133.1 14V18.8H137.8V39.1H143.1V14H133.1Z" fill="white"/>
<path d="M129 5.80029H123.7V39.0903H129V5.80029Z" fill="white"/>
<path d="M140.5 5.5C139.887 5.5 139.288 5.68181 138.778 6.02244C138.268 6.36308 137.871 6.84723 137.636 7.41368C137.402 7.98013 137.34 8.60344 137.46 9.20478C137.58 9.80612 137.875 10.3585 138.308 10.792C138.742 11.2256 139.294 11.5208 139.896 11.6404C140.497 11.76 141.12 11.6987 141.687 11.464C142.253 11.2294 142.737 10.8321 143.078 10.3223C143.419 9.81248 143.6 9.21312 143.6 8.6C143.6 7.77783 143.274 6.98933 142.692 6.40797C142.111 5.82661 141.323 5.5 140.5 5.5Z" fill="white"/>
<path d="M247.4 32.2999C246.703 33.0904 245.839 33.716 244.871 34.1311C243.902 34.5462 242.853 34.7405 241.8 34.6999C240.717 34.7426 239.638 34.5501 238.637 34.1358C237.636 33.7215 236.736 33.0951 236 32.2999C235.011 31.2699 234.32 29.9913 234 28.5999H254.8C254.916 27.9055 254.983 27.2037 255 26.4999C255.062 22.9999 253.731 19.6186 251.3 17.0999C250.067 15.8423 248.585 14.855 246.95 14.2008C245.314 13.5466 243.561 13.2398 241.8 13.2999C240.025 13.244 238.258 13.5524 236.607 14.2059C234.956 14.8595 233.456 15.8444 232.2 17.0999C230.978 18.3337 230.02 19.8034 229.384 21.4194C228.748 23.0354 228.447 24.764 228.5 26.4999C228.459 28.2577 228.775 30.0055 229.429 31.6377C230.083 33.2699 231.061 34.7525 232.304 35.9958C233.548 37.2391 235.03 38.2173 236.662 38.8711C238.294 39.525 240.042 39.8409 241.8 39.7999C243.57 39.8596 245.331 39.5428 246.969 38.8705C248.607 38.1982 250.083 37.1856 251.3 35.8999C252.561 34.6693 253.519 33.1632 254.1 31.4999H248.1C247.922 31.8103 247.684 32.0822 247.4 32.2999ZM236 20.6999C236.757 19.938 237.662 19.3404 238.66 18.9447C239.658 18.5489 240.727 18.3634 241.8 18.3999C242.843 18.3668 243.881 18.5546 244.846 18.951C245.811 19.3474 246.682 19.9434 247.4 20.6999C248.279 21.5441 248.903 22.6182 249.2 23.7999H234.2C234.541 22.6362 235.158 21.5725 236 20.6999Z" fill="white"/>
<path d="M50.7001 16.0002C52.8214 20.8641 53.4217 26.256 52.4223 31.4674C51.4228 36.6789 48.8703 41.4661 45.1001 45.2002L38.9001 39.0002C40.5479 37.3725 41.8562 35.4338 42.7491 33.2967C43.642 31.1595 44.1018 28.8664 44.1018 26.5502C44.1018 24.234 43.642 21.9408 42.7491 19.8037C41.8562 17.6665 40.5479 15.7279 38.9001 14.1002C37.2724 12.4524 35.3337 11.1441 33.1966 10.2512C31.0594 9.35824 28.7663 8.89845 26.4501 8.89845C24.1339 8.89845 21.8407 9.35824 19.7036 10.2512C17.5664 11.1441 15.6278 12.4524 14.0001 14.1002C12.3523 15.7279 11.044 17.6665 10.1511 19.8037C9.25814 21.9408 8.79835 24.234 8.79835 26.5502C8.79835 28.8664 9.25814 31.1595 10.1511 33.2967C11.044 35.4338 12.3523 37.3725 14.0001 39.0002L7.70008 45.2002C5.2506 42.7422 3.30974 39.8254 1.9885 36.6167C0.667259 33.408 -0.00843005 29.9703 7.93838e-05 26.5002C0.0261778 19.5005 2.78982 12.7888 7.70008 7.80018C12.6887 2.88992 19.4004 0.126275 26.4001 0.100177C29.8702 0.0916676 33.3079 0.767357 36.5166 2.0886C39.7253 3.40983 42.6421 5.3507 45.1001 7.80018C47.4541 10.1667 49.3524 12.9464 50.7001 16.0002Z" fill="url(#paint0_linear_7769_112617)"/>
<path fill-rule="evenodd" clip-rule="evenodd" d="M20.2002 32.8L26.4002 26.5L38.9002 39L20.2002 32.8Z" fill="url(#paint1_linear_7769_112617)"/>
<path fill-rule="evenodd" clip-rule="evenodd" d="M14 39.0003L20.2 32.8003L31 43.6003L14 39.0003Z" fill="url(#paint2_linear_7769_112617)"/>
<defs>
<linearGradient id="paint0_linear_7769_112617" x1="1.19008" y1="1.29018" x2="54.3501" y2="54.4502" gradientUnits="userSpaceOnUse">
<stop stop-color="#671AC1"/>
<stop offset="1" stop-color="#0DB9F2"/>
</linearGradient>
<linearGradient id="paint1_linear_7769_112617" x1="5.60019" y1="11.94" x2="41.7702" y2="48.11" gradientUnits="userSpaceOnUse">
<stop stop-color="#671AC1"/>
<stop offset="1" stop-color="#0DB9F2"/>
</linearGradient>
<linearGradient id="paint2_linear_7769_112617" x1="-0.639999" y1="18.1703" x2="35.53" y2="54.3403" gradientUnits="userSpaceOnUse">
<stop stop-color="#671AC1"/>
<stop offset="1" stop-color="#0DB9F2"/>
</linearGradient>
</defs>
</svg>
